<?xml version="1.0" encoding="UTF-8" standalone="no"?>
<!-- Created with Inkscape (http://www.inkscape.org/) -->

<svg
   xmlns:dc="http://purl.org/dc/elements/1.1/"
   xmlns:cc="http://creativecommons.org/ns#"
   xmlns:rdf="http://www.w3.org/1999/02/22-rdf-syntax-ns#"
   xmlns:svg="http://www.w3.org/2000/svg"
   xmlns="http://www.w3.org/2000/svg"
   xmlns:sodipodi="http://sodipodi.sourceforge.net/DTD/sodipodi-0.dtd"
   xmlns:inkscape="http://www.inkscape.org/namespaces/inkscape"
   width="64px"
   height="64px"
   id="svg3196"
   version="1.1"
   inkscape:version="0.48.4 r9939"
   sodipodi:docname="New document 3">
  <defs
     id="defs3198" />
  <sodipodi:namedview
     id="base"
     pagecolor="#ffffff"
     bordercolor="#666666"
     borderopacity="1.0"
     inkscape:pageopacity="0.0"
     inkscape:pageshadow="2"
     inkscape:zoom="5.5"
     inkscape:cx="32"
     inkscape:cy="32"
     inkscape:current-layer="layer1"
     showgrid="true"
     inkscape:document-units="px"
     inkscape:grid-bbox="true"
     inkscape:window-width="1920"
     inkscape:window-height="1080"
     inkscape:window-x="0"
     inkscape:window-y="0"
     inkscape:window-maximized="0" />
  <metadata
     id="metadata3201">
    <rdf:RDF>
      <cc:Work
         rdf:about="">
        <dc:format>image/svg+xml</dc:format>
        <dc:type
           rdf:resource="http://purl.org/dc/dcmitype/StillImage" />
        <dc:title></dc:title>
      </cc:Work>
    </rdf:RDF>
  </metadata>
  <g
     id="layer1"
     inkscape:label="Layer 1"
     inkscape:groupmode="layer">
    <g
       transform="matrix(0.23926279,0,0,0.23926279,-120.55565,-670.13668)"
       id="g4213">
      <path
         inkscape:connector-curvature="0"
         id="path4215"
         d="m 610.58319,3061.2089 c 1.456,-1.9009 18.4213,-43.1796 18.4213,-44.8212 0,-0.715 -4.5348,-9.9146 -10.0774,-20.4436 l -10.0773,-19.1436 -2.8376,-15.5 c -5.2962,-28.9295 -5.5659,-31.037 -4.0884,-31.9501 0.7319,-0.4524 14.437,-4.0852 30.4557,-8.0731 16.0188,-3.9878 29.6496,-7.7515 30.2907,-8.3637 0.6411,-0.6122 3.7471,-8.4333 6.9022,-17.3802 3.1551,-8.9468 6.2824,-17.0135 6.9495,-17.9258 1.0693,-1.4624 3.1234,-0.032 17.3478,12.0781 l 16.1348,13.7369 0,31.939 c 0,31.5887 0.5947,37.0147 3.035,27.6889 0.6116,-2.3375 3.8325,-14.375 7.1574,-26.75 3.3249,-12.375 6.0079,-24.4282 5.9622,-26.7849 -0.1192,-6.1513 -3.1061,-44.3084 -3.6682,-46.8619 -0.5393,-2.4493 -28.5954,-26.3532 -30.9309,-26.3532 -0.8333,0 -3.3674,0.7412 -5.6314,1.647 l -4.1164,1.6471 -5.1538,-5.4977 -5.1539,-5.4977 -20.6566,-1.7715 c -17.5736,-1.5071 -20.9413,-1.5667 -22.5645,-0.3993 -1.0493,0.7546 -11.6274,10.2812 -23.5068,21.1701 l -21.5989,19.798 -2.5656,11.202 c -1.4112,6.1611 -5.3391,23.7861 -8.7287,39.1666 l -6.1631,27.9646 3.6193,15.0354 c 1.9906,8.2695 5.923,24.605 8.7386,36.3012 l 5.1192,21.2657 5.9647,4.5898 c 3.2806,2.5243 6.2169,4.3376 6.525,4.0294 0.3082,-0.3082 -0.6618,-2.6459 -2.1556,-5.1949 -2.1227,-3.6221 -2.5763,-5.3796 -2.0762,-8.0452 0.3519,-1.8758 0.9806,-3.4106 1.3972,-3.4106 0.4166,0 4.1087,4.1384 8.2047,9.1964 l 7.4473,9.1964 0.5,16.962 c 0.3661,12.4206 0.7888,16.5849 1.5787,15.5536 z m 51.3373,-68.8023 c 1.6962,-2.1417 3.084,-4.3706 3.084,-4.9532 0,-2.0443 -9.0758,-5.1529 -15.0442,-5.1529 -5.5421,0 -13.9933,2.6336 -15.3153,4.7727 -0.3189,0.516 1.0166,2.8032 2.9677,5.0827 l 3.5476,4.1446 8.8381,0 8.838,0 3.0841,-3.8939 z"
         style="fill:#000000" />
      <g
         transform="matrix(1.3071808,0,0,1.3071808,-2155.1106,1386.4322)"
         id="g4217">
        <path
           sodipodi:nodetypes="sccssscssscscccsscsscscs"
           style="fill:#010101"
           d="m 2166.4217,1189.1724 c 16.1315,-8.7992 21.7616,-11.3629 28.6742,-13.057 l 6.811,-1.6691 9.2463,5.5588 c 14.626,8.7932 23.7462,9.8519 23.7462,2.7567 0,-4.7156 -3.9609,-8.1496 -17.4145,-15.0982 l -12.585,-6.5 -2.1588,-5.5 c -1.6823,-4.286 -2.2959,-8.5903 -2.7799,-19.5 -0.3474,-7.8315 -1.1501,-14.9464 -1.8219,-16.1479 -2.1679,-3.8772 -10.5428,-10.4232 -17.7062,-13.8393 -9.4852,-4.5235 -18.9504,-7.2183 -31.5337,-8.9779 -5.775,-0.8076 -11.6935,-1.7523 -13.1521,-2.0995 -1.9129,-0.4552 -3.2075,-0.076 -4.6445,1.3612 -1.0959,1.0959 -4.3615,2.5005 -7.2569,3.1215 -9.5044,2.0383 -13.9192,4.7246 -23.1899,14.1108 -9.9744,10.0986 -13.6954,16.7019 -16.2275,28.7974 -2.1137,10.0971 -3.5119,27.4069 -2.8221,34.9399 0.6579,7.1859 1.7195,7.9137 10.0972,6.922 2.5827,-0.3057 9.1319,-1.0568 14.5538,-1.6691 l 9.8579,-1.1133 6.3683,4.1491 c 11.1478,7.263 16.6375,9.0661 26.4381,8.6836 8.0303,-0.3135 9.0407,-0.6154 17.5,-5.2297 z"
           id="path4219"
           inkscape:connector-curvature="0" />
        <path
           sodipodi:nodetypes="scccssssssccss"
           style="fill:#ffffff"
           d="m 2131.6679,1168.2111 c 37.3852,-12.0276 52.4724,-14.5697 63.7221,-10.7366 3.2949,1.1226 6.1397,1.8921 6.3219,1.71 0.1822,-0.1822 -0.449,-2.5114 -1.4027,-5.1761 -1.149,-3.2106 -1.933,-9.3985 -2.3243,-18.3448 -0.3327,-7.6063 -1.1184,-14.4224 -1.7998,-15.6129 -3.5039,-6.1219 -18.3456,-14.541 -32.2857,-18.3142 -8.0363,-2.1752 -25.8772,-4.1683 -29.375,-3.2816 -1.1688,0.2963 -3.475,1.5258 -5.125,2.7322 -1.65,1.2064 -5.4003,3.4743 -8.3341,5.0397 -6.3659,3.3967 -9.1606,8.0098 -9.1767,15.147 -0.013,5.6934 5.7253,44.807 7.0476,48.0398 0.5062,1.2375 1.1633,2.25 1.4602,2.25 0.297,0 5.3692,-1.5536 11.2715,-3.4525 z"
           id="path4221"
           inkscape:connector-curvature="0" />
      </g>
      <path
         style="fill:#000000;fill-opacity:1"
         d="m 586.87224,2984.7437 c -0.9669,2.1456 -3.1846,3.1998 -6.4495,3.0051 l -3.1747,-0.1844 -3.9828,4.4086 c -2.1907,2.4173 -5.5919,6.6714 -7.5642,9.4513 -6.6478,9.3707 -11.0107,12.3754 -25.0589,17.2657 -7.6836,2.6747 -14.1798,5.9714 -22.6685,11.5031 -3.8026,2.478 -7.2716,4.543 -7.7063,4.5897 -1.7019,0.1835 -1.7863,-1.5094 -0.3679,-6.5073 2.0473,-7.2139 6.8137,-16.9304 12.4884,-25.4391 5.7899,-8.6816 9.3237,-12.5603 16.5825,-18.1935 7.0464,-5.4684 12.5894,-8.1388 20.9389,-10.0874 l 6.6884,-1.5656 0.5675,-2.2652 c 0.5509,-2.2185 3.0215,-4.7298 5.3415,-5.4336 2.4173,-0.7333 4.9984,1.2686 10.0978,7.827 4.6636,5.9974 4.911,6.4769 4.8084,9.1374 -0.037,0.951 -0.2183,1.7731 -0.5414,2.4881 z"
         id="path4223"
         inkscape:connector-curvature="0"
         sodipodi:nodetypes="scccssssssscccssss" />
    </g>
  </g>
</svg>
