<?xml version="1.0" encoding="UTF-8" standalone="no"?>
<!-- Created with Inkscape (http://www.inkscape.org/) -->

<svg
   xmlns:dc="http://purl.org/dc/elements/1.1/"
   xmlns:cc="http://creativecommons.org/ns#"
   xmlns:rdf="http://www.w3.org/1999/02/22-rdf-syntax-ns#"
   xmlns:svg="http://www.w3.org/2000/svg"
   xmlns="http://www.w3.org/2000/svg"
   xmlns:sodipodi="http://sodipodi.sourceforge.net/DTD/sodipodi-0.dtd"
   xmlns:inkscape="http://www.inkscape.org/namespaces/inkscape"
   width="64px"
   height="64px"
   id="svg3196"
   version="1.1"
   inkscape:version="0.48.4 r9939"
   sodipodi:docname="logo.svg"
   inkscape:export-filename="logo.png"
   inkscape:export-xdpi="360"
   inkscape:export-ydpi="360">
  <defs
     id="defs3198" />
  <sodipodi:namedview
     id="base"
     pagecolor="#ffffff"
     bordercolor="#666666"
     borderopacity="1.0"
     inkscape:pageopacity="0.0"
     inkscape:pageshadow="2"
     inkscape:zoom="5.5"
     inkscape:cx="32"
     inkscape:cy="32"
     inkscape:current-layer="layer1"
     showgrid="true"
     inkscape:document-units="px"
     inkscape:grid-bbox="true"
     inkscape:window-width="1920"
     inkscape:window-height="1080"
     inkscape:window-x="0"
     inkscape:window-y="0"
     inkscape:window-maximized="0" />
  <metadata
     id="metadata3201">
    <rdf:RDF>
      <cc:Work
         rdf:about="">
        <dc:format>image/svg+xml</dc:format>
        <dc:type
           rdf:resource="http://purl.org/dc/dcmitype/StillImage" />
        <dc:title />
      </cc:Work>
    </rdf:RDF>
  </metadata>
  <g
     id="layer1"
     inkscape:label="Layer 1"
     inkscape:groupmode="layer">
    <g
       transform="matrix(0.23926279,0,0,0.23926279,-120.55565,-671.22759)"
       id="g4213">
      <path
         style="fill:#000000"
         d="M 31.375 2.9375 C 30.987656 2.9318645 30.680827 3.1003763 30.34375 3.4375 C 30.000997 3.7802534 28.968065 4.2120262 28.0625 4.40625 C 25.089906 5.0437481 23.712002 5.8768747 20.8125 8.8125 C 17.692909 11.970935 16.510689 14.029515 15.71875 17.8125 C 15.05767 20.970466 14.628008 26.393981 14.84375 28.75 C 14.938059 29.780086 15.08199 30.363331 15.4375 30.6875 L 14.8125 33.5625 L 15.65625 37.1875 C 15.728403 37.487243 15.877816 38.122243 15.96875 38.5 C 15.577423 38.76683 15.252136 39.176361 15.15625 39.5625 L 15 40.09375 L 13.40625 40.46875 C 11.408525 40.934977 10.092191 41.566615 8.40625 42.875 C 6.6694893 44.222815 5.8228076 45.172816 4.4375 47.25 C 3.0797554 49.285815 1.9273427 51.586482 1.4375 53.3125 C 1.0981297 54.508311 1.1240487 54.918905 1.53125 54.875 C 1.6352575 54.863826 2.4651793 54.374143 3.375 53.78125 C 5.40603 52.45772 6.9741004 51.671206 8.8125 51.03125 C 12.173712 49.861183 13.190679 49.14831 14.78125 46.90625 C 15.253148 46.241123 16.069597 45.20337 16.59375 44.625 L 17.28125 43.90625 C 17.450605 44.609763 17.599213 45.21737 17.75 45.84375 L 18.96875 50.9375 L 20.40625 52.03125 C 21.191176 52.635221 21.895033 53.073741 21.96875 53 C 22.042491 52.926259 21.826161 52.391131 21.46875 51.78125 C 20.960867 50.914616 20.849095 50.481529 20.96875 49.84375 C 21.052947 49.394941 21.181573 49.03125 21.28125 49.03125 C 21.380927 49.03125 22.26998 50.008559 23.25 51.21875 L 25.03125 53.4375 L 25.15625 57.5 C 25.243844 60.471787 25.342256 61.465502 25.53125 61.21875 C 25.879617 60.763935 29.9375 50.861524 29.9375 50.46875 C 29.9375 50.297677 28.857388 48.112948 27.53125 45.59375 L 25.125 41 L 24.4375 37.3125 C 23.619111 32.842201 23.307741 31.049806 23.28125 30.28125 L 25.65625 30.03125 L 27.625 31.34375 C 31.111583 33.615324 32.841017 34.182131 35.90625 34.0625 C 38.417804 33.96445 38.729272 33.849417 41.375 32.40625 C 45.602166 30.100471 47.528891 29.211053 49.3125 28.65625 L 49.3125 31.09375 C 49.3125 38.65175 49.478627 39.950067 50.0625 37.71875 C 50.208833 37.159473 50.954475 34.273377 51.75 31.3125 C 52.081352 30.079234 52.383017 28.950716 52.625 27.90625 L 55.375 29.5625 C 59.949424 32.312659 62.78125 32.625343 62.78125 30.40625 C 62.78125 28.9314 61.551494 27.860742 57.34375 25.6875 L 53.40625 23.65625 L 53.0625 22.78125 C 52.848137 19.589042 52.415663 14.156148 52.3125 13.6875 C 52.289919 13.584945 52.013819 13.296305 51.65625 12.9375 C 51.544301 11.833635 51.400237 10.994055 51.28125 10.78125 C 50.603218 9.568618 47.990423 7.5371685 45.75 6.46875 C 42.783411 5.0539814 39.841799 4.206582 35.90625 3.65625 C 34.100063 3.4036652 32.237441 3.1085902 31.78125 3 C 31.63168 2.9644079 31.504115 2.9393785 31.375 2.9375 z M 34.96875 42.3125 C 33.642732 42.3125 31.597555 42.956943 31.28125 43.46875 C 31.204949 43.59221 31.533174 44.1421 32 44.6875 L 32.84375 45.6875 L 34.96875 45.6875 L 37.09375 45.6875 L 37.8125 44.75 C 38.218338 44.237571 38.5625 43.701895 38.5625 43.5625 C 38.5625 43.073375 36.396766 42.3125 34.96875 42.3125 z "
         transform="matrix(4.1795049,0,0,4.1795049,503.86293,2805.399)"
         id="path4215" />
      <g
         transform="matrix(1.3071808,0,0,1.3071808,-2155.1106,1386.4322)"
         id="g4217">
        <path
           sodipodi:nodetypes="scccssssssccss"
           style="fill:#ffffff"
           d="m 2131.6679,1168.2111 c 37.3852,-12.0276 52.4724,-14.5697 63.7221,-10.7366 3.2949,1.1226 6.1397,1.8921 6.3219,1.71 0.1822,-0.1822 -0.449,-2.5114 -1.4027,-5.1761 -1.149,-3.2106 -1.933,-9.3985 -2.3243,-18.3448 -0.3327,-7.6063 -1.1184,-14.4224 -1.7998,-15.6129 -3.5039,-6.1219 -18.3456,-14.541 -32.2857,-18.3142 -8.0363,-2.1752 -25.8772,-4.1683 -29.375,-3.2816 -1.1688,0.2963 -3.475,1.5258 -5.125,2.7322 -1.65,1.2064 -5.4003,3.4743 -8.3341,5.0397 -6.3659,3.3967 -9.1606,8.0098 -9.1767,15.147 -0.013,5.6934 5.7253,44.807 7.0476,48.0398 0.5062,1.2375 1.1633,2.25 1.4602,2.25 0.297,0 5.3692,-1.5536 11.2715,-3.4525 z"
           id="path4221"
           inkscape:connector-curvature="0" />
      </g>
    </g>
  </g>
</svg>
